<svg fill="#9dff00" xmlns="http://www.w3.org/2000/svg" viewBox="0 0 1000 1000" xml:space="preserve">
    <path d="M456.28 21.36c-38.7 3.45-88.89 14.56-124.14 27.59-30.08 11.11-74.33 33.72-102.3 52.3-73.94 49.03-131.22 114.36-169.53 192.9-29.88 61.3-44.25 114.94-49.23 184.48-4.6 64.17 5.75 137.74 28.16 198.85 10.54 28.93 35.25 77.78 51.72 102.3 48.47 72.41 110.92 127.97 187.74 166.86 26.05 13.03 73.95 32.38 80.46 32.38 1.53 0 7.47-8.62 13.41-19.16 24.52-43.68 54.41-72.03 90.61-85.82 11.3-4.4 15.71-4.98 35.82-4.98s24.52.58 35.82 4.98c20.31 7.66 33.52 16.47 51.53 34.1 16.67 16.28 32.18 38.12 43.49 60.73l5.94 11.69 8.24-2.49c50.57-15.52 107.28-44.06 148.27-74.9 23.18-17.43 27.2-20.88 52.11-45.59 40.8-40.04 68.96-78.93 94.25-130.46 31.04-63.03 45.21-115.9 50.19-187.16 9.58-134.67-40.42-270.49-136.4-370.11C749.18 62.74 603.79 8.33 456.28 21.36zm65.9 143.1c15.9 8.05 26.05 24.52 26.44 42.53.19 15.13-4.98 27.01-16.09 36.97-13.6 12.26-30.46 15.9-48.27 10.54-8.62-2.49-23.37-14.75-27.39-22.6-13.98-27.01-1.34-59.58 27.01-70.12 9.94-3.64 28.33-2.49 38.3 2.68zm-209.2 85.63c30.27 14.56 37.16 54.79 13.41 78.54-23.95 23.75-63.6 17.05-78.54-13.6-4.41-9.19-4.98-12.07-4.21-23.75 1.53-20.88 12.45-35.82 31.42-43.1 9.76-3.64 28.35-2.69 37.92 1.91zm411.3-1.91c19.35 6.9 30.46 21.84 31.99 43.1.77 11.69.19 14.56-4.21 23.75-22.8 46.55-93.1 30.65-93.1-20.88 0-33.33 33.71-57.08 65.32-45.97zm-495.2 211.3c14.56 7.47 23.56 21.46 25.1 39.08 1.34 13.79-2.87 25.67-12.45 36.4-10.54 11.68-19.93 15.7-35.83 15.7-16.28 0-25.67-4.21-36.78-16.86-12.83-14.56-15.71-34.29-7.47-51.91 11.87-25.67 41.95-35.63 67.43-22.41zm584.28-2.49c30.08 12.26 39.08 54.79 16.48 78.16-11.3 11.69-20.31 15.52-35.82 15.52-15.9 0-25.29-4.02-35.82-15.71-26.05-28.93-10.15-74.71 28.16-80.84 8.99-1.54 18.76-.39 27 2.87z" />
</svg>